<svg width="304" height="292" xmlns="http://www.w3.org/2000/svg" xmlns:xlink="http://www.w3.org/1999/xlink" overflow="hidden"><defs><clipPath id="clip0"><rect x="488" y="184" width="304" height="292"/></clipPath><clipPath id="clip1"><rect x="489" y="184" width="302" height="291"/></clipPath><clipPath id="clip2"><rect x="489" y="184" width="302" height="291"/></clipPath><clipPath id="clip3"><rect x="564" y="227" width="12" height="11"/></clipPath><clipPath id="clip4"><rect x="691" y="220" width="12" height="13"/></clipPath><clipPath id="clip5"><rect x="746" y="247" width="11" height="12"/></clipPath><clipPath id="clip6"><rect x="739" y="430" width="11" height="12"/></clipPath></defs><g clip-path="url(#clip0)" transform="translate(-488 -184)"><g clip-path="url(#clip1)"><g clip-path="url(#clip2)"><path d="M-47.3807-47.3807 521.188-47.3807 521.188 521.188-47.3807 521.188Z" fill="#FFFFFF" transform="matrix(1 0 0 1.00154 407.425 124.773)"/><path d="M-47.3807-47.3807 521.188-47.3807 521.188 521.188-47.3807 521.188Z" fill="#FFFFFF" transform="matrix(1 0 0 1.00154 407.425 124.773)"/><g><g><path d="M107.456 21.3509C107.683 21.4398 181.873 49.9571 205.909 108.097 210.287 101.039 215.725 91.0549 217.073 83.1285 217.561 80.1721 220.355 78.1881 223.296 78.6767 225.241 79.0024 226.761 80.3153 227.432 82.018 229.303 86.3761 280.879 208.633 171.306 251.513 168.527 252.598 165.388 251.231 164.288 248.443 163.814 247.224 163.814 245.941 164.179 244.8 175.087 211.219 169.806 187.238 159.337 174.425 154.071 167.975 147.561 164.51 141.427 164.322 135.617 164.15 129.981 167.017 126.048 173.196 118.393 185.185 116.774 208.549 129.754 245.126 130.741 247.939 129.265 251.034 126.452 252.036 125.677 252.307 124.888 252.396 124.113 252.317 106.533 251.439 92.1407 246.212 80.9421 238.103 70.7453 230.715 63.2286 220.927 58.4165 209.832 53.6587 198.851 51.566 186.621 52.1632 174.208 52.9776 157.112 58.8409 139.605 69.778 124.508 72.8972 120.204 76.2188 116.231 79.5207 112.268 94.4456 94.3666 109.292 76.589 100.166 27.3673 99.6229 24.4356 101.567 21.6125 104.509 21.0696 105.531 20.8821 106.552 21.0055 107.456 21.3509Z" fill="#9A73DC" fill-rule="evenodd" transform="matrix(1 0 0 1.00154 498.396 199.434)"/></g><g><path d="M44.8439 64.5859C44.8439 65.2966 44.7748 66.0073 44.6317 66.7081 44.4935 67.409 44.2862 68.0851 44.0147 68.7465 43.7383 69.4078 43.4077 70.0346 43.0079 70.6269 42.613 71.2241 42.159 71.7719 41.6556 72.2754 41.1521 72.7837 40.5994 73.2328 40.0071 73.6277 39.4148 74.0275 38.788 74.3631 38.1267 74.6345 37.4653 74.9109 36.7842 75.1133 36.0834 75.2564 35.3825 75.3946 34.6768 75.4637 33.9611 75.4637 33.2455 75.4637 32.5397 75.3946 31.8389 75.2564 31.138 75.1133 30.4569 74.9109 29.8005 74.6345 29.1391 74.3631 28.5123 74.0275 27.9151 73.6277 27.3229 73.2328 26.775 72.7837 26.2667 72.2754 25.7633 71.7719 25.3141 71.2241 24.9144 70.6269 24.5195 70.0346 24.1839 69.4078 23.9125 68.7465 23.6361 68.0851 23.4288 67.409 23.2906 66.7081 23.1524 66.0073 23.0833 65.2966 23.0833 64.5859 23.0833 63.8702 23.1524 63.1595 23.2906 62.4587 23.4288 61.7627 23.6361 61.0817 23.9125 60.4203 24.1839 59.7589 24.5195 59.1321 24.9144 58.5399 25.3141 57.9427 25.7633 57.3948 26.2667 56.8914 26.775 56.3831 27.3229 55.9339 27.9151 55.5391 28.5123 55.1393 29.1391 54.8037 29.8005 54.5323 30.4569 54.2608 31.138 54.0535 31.8389 53.9104 32.5397 53.7722 33.2455 53.7031 33.9611 53.7031 34.6768 53.7031 35.3825 53.7722 36.0834 53.9104 36.7842 54.0535 37.4653 54.2608 38.1267 54.5323 38.788 54.8037 39.4148 55.1393 40.0071 55.5391 40.5994 55.9339 41.1521 56.3831 41.6556 56.8914 42.159 57.3948 42.613 57.9427 43.0079 58.5399 43.4077 59.1321 43.7383 59.7589 44.0147 60.4203 44.2862 61.0817 44.4935 61.7627 44.6317 62.4587 44.7748 63.1595 44.8439 63.8702 44.8439 64.5859Z" fill="#E2A9F1" transform="matrix(1 0 0 1.00154 498.396 199.434)"/></g><g><path d="M290.414 125.806C290.414 126.521 290.34 127.232 290.202 127.928 290.064 128.629 289.857 129.31 289.585 129.971 289.309 130.633 288.973 131.259 288.578 131.852 288.183 132.444 287.729 132.997 287.226 133.5 286.723 134.008 286.17 134.458 285.577 134.852 284.98 135.252 284.353 135.588 283.697 135.859 283.036 136.131 282.355 136.338 281.654 136.476 280.953 136.619 280.247 136.688 279.531 136.688 278.816 136.688 278.11 136.619 277.409 136.476 276.708 136.338 276.027 136.131 275.371 135.859 274.71 135.588 274.083 135.252 273.486 134.852 272.893 134.458 272.345 134.008 271.837 133.5 271.334 132.997 270.884 132.444 270.485 131.852 270.09 131.259 269.754 130.633 269.478 129.971 269.206 129.31 268.999 128.629 268.861 127.928 268.723 127.232 268.654 126.521 268.654 125.806 268.654 125.095 268.723 124.384 268.861 123.683 268.999 122.983 269.206 122.306 269.478 121.645 269.754 120.984 270.09 120.357 270.485 119.765 270.884 119.167 271.334 118.62 271.837 118.116 272.345 117.608 272.893 117.159 273.486 116.759 274.083 116.364 274.71 116.028 275.371 115.757 276.027 115.481 276.708 115.278 277.409 115.135 278.11 114.997 278.816 114.928 279.531 114.928 280.247 114.928 280.953 114.997 281.654 115.135 282.355 115.278 283.036 115.481 283.697 115.757 284.353 116.028 284.98 116.364 285.577 116.759 286.17 117.159 286.723 117.608 287.226 118.116 287.729 118.62 288.183 119.167 288.578 119.765 288.973 120.357 289.309 120.984 289.585 121.645 289.857 122.306 290.064 122.983 290.202 123.683 290.34 124.384 290.414 125.095 290.414 125.806Z" fill="#E2A9F1" transform="matrix(1 0 0 1.00154 498.396 199.434)"/></g><g><path d="M33.9562 219.995C33.9562 220.71 33.8822 221.416 33.744 222.117 33.6058 222.818 33.3985 223.499 33.127 224.16 32.8506 224.822 32.515 225.448 32.1202 226.041 31.7253 226.633 31.2713 227.186 30.7679 227.689 30.2644 228.192 29.7117 228.647 29.1194 229.041 28.5222 229.441 27.8954 229.777 27.239 230.048 26.5776 230.32 25.8965 230.527 25.1957 230.665 24.4948 230.808 23.7891 230.877 23.0734 230.877 22.3578 230.877 21.652 230.808 20.9512 230.665 20.2503 230.527 19.5692 230.32 18.9128 230.048 18.2514 229.777 17.6246 229.441 17.0274 229.041 16.4352 228.647 15.8874 228.192 15.379 227.689 14.8756 227.186 14.4264 226.633 14.0267 226.041 13.6318 225.448 13.2962 224.822 13.0198 224.16 12.7484 223.499 12.5411 222.818 12.4029 222.117 12.2647 221.416 12.1956 220.71 12.1956 219.995 12.1956 219.284 12.2647 218.573 12.4029 217.872 12.5411 217.172 12.7484 216.49 13.0198 215.834 13.2962 215.173 13.6318 214.546 14.0267 213.954 14.4264 213.356 14.8756 212.809 15.379 212.305 15.8874 211.797 16.4352 211.348 17.0274 210.948 17.6246 210.553 18.2514 210.217 18.9128 209.946 19.5692 209.67 20.2503 209.462 20.9512 209.324 21.652 209.186 22.3578 209.117 23.0734 209.117 23.7891 209.117 24.4948 209.186 25.1957 209.324 25.8965 209.462 26.5776 209.67 27.239 209.946 27.8954 210.217 28.5222 210.553 29.1194 210.948 29.7117 211.348 30.2644 211.797 30.7679 212.305 31.2713 212.809 31.7253 213.356 32.1202 213.954 32.515 214.546 32.8506 215.173 33.127 215.834 33.3985 216.49 33.6058 217.172 33.744 217.872 33.8822 218.573 33.9562 219.284 33.9562 219.995Z" fill="#E2A9F1" transform="matrix(1 0 0 1.00154 498.396 199.434)"/></g><g><path d="M12.1907 166.548C12.1907 166.904 12.1561 167.254 12.087 167.599 12.0179 167.945 11.9143 168.281 11.781 168.606 11.6478 168.932 11.48 169.243 11.2825 169.539 11.0901 169.83 10.863 170.102 10.6162 170.353 10.3645 170.6 10.0931 170.827 9.80189 171.02 9.50576 171.217 9.19976 171.385 8.86908 171.518 8.54334 171.651 8.20772 171.755 7.86224 171.824 7.51676 171.893 7.16633 171.928 6.81591 171.928 6.46056 171.928 6.11014 171.893 5.76466 171.824 5.41917 171.755 5.08356 171.651 4.75781 171.518 4.43207 171.385 4.12114 171.217 3.82501 171.02 3.53381 170.827 3.26236 170.6 3.01065 170.353 2.76388 170.102 2.53684 169.83 2.34436 169.539 2.14694 169.243 1.97913 168.932 1.84587 168.606 1.71262 168.281 1.60897 167.945 1.53987 167.599 1.47078 167.254 1.43623 166.904 1.43623 166.548 1.43623 166.198 1.47078 165.847 1.53987 165.502 1.60897 165.156 1.71262 164.821 1.84587 164.495 1.97913 164.164 2.14694 163.858 2.34436 163.562 2.53684 163.271 2.76388 163 3.01065 162.748 3.26236 162.501 3.53381 162.274 3.82501 162.082 4.12114 161.884 4.43207 161.716 4.75781 161.583 5.08356 161.45 5.41917 161.346 5.76466 161.277 6.11014 161.208 6.46056 161.173 6.81591 161.173 7.16633 161.173 7.51676 161.208 7.86224 161.277 8.20772 161.346 8.54334 161.45 8.86908 161.583 9.19976 161.716 9.50576 161.884 9.80189 162.082 10.0931 162.274 10.3645 162.501 10.6162 162.748 10.863 163 11.0901 163.271 11.2825 163.562 11.48 163.858 11.6478 164.164 11.781 164.495 11.9143 164.821 12.0179 165.156 12.087 165.502 12.1561 165.847 12.1907 166.198 12.1907 166.548Z" fill="#9A73DC" transform="matrix(1 0 0 1.00154 498.396 199.434)"/></g><g><path d="M28.458 120.436C28.458 120.786 28.4235 121.137 28.3544 121.482 28.2853 121.833 28.1817 122.168 28.0484 122.494 27.9151 122.82 27.7473 123.131 27.5499 123.422 27.3525 123.718 27.1304 123.989 26.8836 124.236 26.6319 124.488 26.3605 124.71 26.0693 124.907 25.7731 125.1 25.4622 125.268 25.1365 125.401 24.8107 125.539 24.4751 125.638 24.1296 125.707 23.7841 125.776 23.4337 125.811 23.0784 125.811 22.7279 125.811 22.3775 125.776 22.032 125.707 21.6866 125.638 21.3509 125.539 21.0252 125.401 20.6945 125.268 20.3885 125.1 20.0924 124.907 19.8012 124.71 19.5297 124.488 19.278 124.236 19.0313 123.989 18.8042 123.718 18.6117 123.422 18.4143 123.131 18.2465 122.82 18.1133 122.494 17.98 122.168 17.8764 121.833 17.8073 121.482 17.7382 121.137 17.7036 120.786 17.7036 120.436 17.7036 120.081 17.7382 119.735 17.8073 119.385 17.8764 119.039 17.98 118.704 18.1133 118.378 18.2465 118.052 18.4143 117.741 18.6117 117.45 18.8042 117.154 19.0313 116.882 19.278 116.636 19.5297 116.384 19.8012 116.162 20.0924 115.964 20.3885 115.767 20.6945 115.604 21.0252 115.466 21.3509 115.333 21.6866 115.229 22.032 115.16 22.3775 115.096 22.7279 115.061 23.0784 115.061 23.4337 115.061 23.7841 115.096 24.1296 115.16 24.4751 115.229 24.8107 115.333 25.1365 115.466 25.4622 115.604 25.7731 115.767 26.0693 115.964 26.3605 116.162 26.6319 116.384 26.8836 116.636 27.1304 116.882 27.3525 117.154 27.5499 117.45 27.7473 117.741 27.9151 118.052 28.0484 118.378 28.1817 118.704 28.2853 119.039 28.3544 119.385 28.4235 119.735 28.458 120.081 28.458 120.436Z" fill="#9A73DC" transform="matrix(1 0 0 1.00154 498.396 199.434)"/></g><g clip-path="url(#clip3)"><path d="M77.0184 33.4232C77.0184 33.7785 76.9838 34.1289 76.9147 34.4744 76.8456 34.8199 76.742 35.1555 76.6087 35.4813 76.4705 35.807 76.3076 36.1179 76.1102 36.4141 75.9128 36.7053 75.6907 36.9767 75.4439 37.2284 75.1922 37.4752 74.9208 37.6973 74.6246 37.8947 74.3335 38.0921 74.0225 38.255 73.6968 38.3932 73.371 38.5265 73.0354 38.6301 72.6899 38.6992 72.3444 38.7683 71.994 38.8028 71.6387 38.8028 71.2883 38.8028 70.9378 38.7683 70.5923 38.6992 70.2469 38.6301 69.9063 38.5265 69.5806 38.3932 69.2548 38.255 68.9439 38.0921 68.6527 37.8947 68.3566 37.6973 68.0851 37.4752 67.8383 37.2284 67.5866 36.9767 67.3645 36.7053 67.1671 36.4141 66.9746 36.1179 66.8068 35.807 66.6736 35.4813 66.5354 35.1555 66.4367 34.8199 66.3676 34.4744 66.2985 34.1289 66.2639 33.7785 66.2639 33.4232 66.2639 33.0727 66.2985 32.7223 66.3676 32.3768 66.4367 32.0313 66.5354 31.6957 66.6736 31.3651 66.8068 31.0393 66.9746 30.7333 67.1671 30.4372 67.3645 30.146 67.5866 29.8745 67.8383 29.6228 68.0851 29.3711 68.3566 29.149 68.6527 28.9565 68.9439 28.7591 69.2548 28.5913 69.5806 28.458 69.9063 28.3248 70.2469 28.2211 70.5923 28.152 70.9378 28.083 71.2883 28.0484 71.6387 28.0484 71.994 28.0484 72.3444 28.083 72.6899 28.152 73.0354 28.2211 73.371 28.3248 73.6968 28.458 74.0225 28.5913 74.3335 28.7591 74.6246 28.9565 74.9208 29.149 75.1922 29.3711 75.4439 29.6228 75.6907 29.8745 75.9128 30.146 76.1102 30.4372 76.3076 30.7333 76.4705 31.0393 76.6087 31.3651 76.742 31.6957 76.8456 32.0313 76.9147 32.3768 76.9838 32.7223 77.0184 33.0727 77.0184 33.4232Z" fill="#9A73DC" transform="matrix(1 0 0 1.00154 498.396 199.434)"/></g><g clip-path="url(#clip4)"><path d="M204.704 26.9083C204.704 27.2933 204.67 27.6782 204.591 28.0533 204.517 28.4334 204.408 28.8035 204.26 29.1589 204.112 29.5142 203.93 29.8548 203.717 30.1707 203.5 30.4915 203.258 30.7925 202.987 31.064 202.715 31.3354 202.414 31.5773 202.094 31.7944 201.773 32.0067 201.437 32.1893 201.082 32.3373 200.722 32.4854 200.356 32.594 199.976 32.673 199.601 32.747 199.216 32.7815 198.831 32.7815 198.446 32.7815 198.066 32.747 197.686 32.673 197.306 32.594 196.941 32.4854 196.586 32.3373 196.23 32.1893 195.89 32.0067 195.569 31.7944 195.248 31.5773 194.952 31.3354 194.68 31.064 194.404 30.7925 194.162 30.4915 193.95 30.1707 193.733 29.8548 193.555 29.5142 193.407 29.1589 193.259 28.8035 193.146 28.4334 193.072 28.0533 192.997 27.6782 192.958 27.2933 192.958 26.9083 192.958 26.5233 192.997 26.1433 193.072 25.7633 193.146 25.3832 193.259 25.018 193.407 24.6627 193.555 24.3073 193.733 23.9668 193.95 23.6459 194.162 23.3251 194.404 23.029 194.68 22.7576 194.952 22.4812 195.248 22.2393 195.569 22.0271 195.89 21.8099 196.23 21.6323 196.586 21.4842 196.941 21.3361 197.306 21.2226 197.686 21.1486 198.066 21.0746 198.446 21.0351 198.831 21.0351 199.216 21.0351 199.601 21.0746 199.976 21.1486 200.356 21.2226 200.722 21.3361 201.082 21.4842 201.437 21.6323 201.773 21.8099 202.094 22.0271 202.414 22.2393 202.715 22.4812 202.987 22.7576 203.258 23.029 203.5 23.3251 203.717 23.6459 203.93 23.9668 204.112 24.3073 204.26 24.6627 204.408 25.018 204.517 25.3832 204.591 25.7633 204.67 26.1433 204.704 26.5233 204.704 26.9083Z" fill="#9A73DC" transform="matrix(1 0 0 1.00154 498.396 199.434)"/></g><g><path d="M153.553 6.51978C153.553 6.87021 153.518 7.22063 153.449 7.56611 153.385 7.91653 153.282 8.25214 153.143 8.57788 153.01 8.90363 152.847 9.21456 152.65 9.50576 152.452 9.80189 152.23 10.0733 151.979 10.3201 151.732 10.5718 151.46 10.7939 151.164 10.9913 150.873 11.1838 150.562 11.3516 150.236 11.4849 149.911 11.6231 149.575 11.7218 149.23 11.7909 148.879 11.86 148.534 11.8945 148.178 11.8945 147.823 11.8945 147.477 11.86 147.127 11.7909 146.782 11.7218 146.446 11.6231 146.12 11.4849 145.794 11.3516 145.484 11.1838 145.192 10.9913 144.896 10.7939 144.625 10.5718 144.378 10.3201 144.126 10.0733 143.904 9.80189 143.707 9.50576 143.509 9.21456 143.346 8.90363 143.213 8.57788 143.075 8.25214 142.971 7.91653 142.907 7.56611 142.838 7.22063 142.804 6.87021 142.804 6.51978 142.804 6.16443 142.838 5.81895 142.907 5.46853 142.971 5.12304 143.075 4.78743 143.213 4.46169 143.346 4.13594 143.509 3.82501 143.707 3.53381 143.904 3.23768 144.126 2.96623 144.378 2.71946 144.625 2.46775 144.896 2.24565 145.192 2.04823 145.484 1.85081 145.794 1.68794 146.12 1.54974 146.446 1.41649 146.782 1.31284 147.127 1.24374 147.477 1.17465 147.823 1.1401 148.178 1.1401 148.534 1.1401 148.879 1.17465 149.23 1.24374 149.575 1.31284 149.911 1.41649 150.236 1.54974 150.562 1.68794 150.873 1.85081 151.164 2.04823 151.46 2.24565 151.732 2.46775 151.979 2.71946 152.23 2.96623 152.452 3.23768 152.65 3.53381 152.847 3.82501 153.01 4.13594 153.143 4.46169 153.282 4.78743 153.385 5.12304 153.449 5.46853 153.518 5.81895 153.553 6.16443 153.553 6.51978Z" fill="#9A73DC" transform="matrix(1 0 0 1.00154 498.396 199.434)"/></g><g clip-path="url(#clip5)"><path d="M258.862 53.7031C258.862 54.0535 258.827 54.4039 258.758 54.7494 258.689 55.0949 258.585 55.4354 258.452 55.7612 258.314 56.0869 258.151 56.3979 257.953 56.6891 257.756 56.9803 257.534 57.2566 257.287 57.5034 257.035 57.7551 256.764 57.9772 256.473 58.1746 256.177 58.3671 255.866 58.5349 255.54 58.6682 255.214 58.8064 254.879 58.9051 254.533 58.9742 254.188 59.0433 253.837 59.0778 253.482 59.0778 253.132 59.0778 252.781 59.0433 252.436 58.9742 252.09 58.9051 251.75 58.8064 251.424 58.6682 251.098 58.5349 250.792 58.3671 250.496 58.1746 250.205 57.9772 249.933 57.7551 249.682 57.5034 249.43 57.2566 249.208 56.9803 249.01 56.6891 248.818 56.3979 248.65 56.0869 248.517 55.7612 248.379 55.4354 248.28 55.0949 248.211 54.7494 248.142 54.4039 248.107 54.0535 248.107 53.7031 248.107 53.3477 248.142 52.9973 248.211 52.6518 248.28 52.3063 248.379 51.9707 248.517 51.645 248.65 51.3192 248.818 51.0083 249.01 50.7171 249.208 50.421 249.43 50.1495 249.682 49.8978 249.933 49.6511 250.205 49.429 250.496 49.2315 250.792 49.0341 251.098 48.8712 251.424 48.7331 251.75 48.5998 252.09 48.4961 252.436 48.4271 252.781 48.358 253.132 48.3234 253.482 48.3234 253.837 48.3234 254.188 48.358 254.533 48.4271 254.879 48.4961 255.214 48.5998 255.54 48.7331 255.866 48.8712 256.177 49.0341 256.473 49.2315 256.764 49.429 257.035 49.6511 257.287 49.8978 257.534 50.1495 257.756 50.421 257.953 50.7171 258.151 51.0083 258.314 51.3192 258.452 51.645 258.585 51.9707 258.689 52.3063 258.758 52.6518 258.827 52.9973 258.862 53.3477 258.862 53.7031Z" fill="#9A73DC" transform="matrix(1 0 0 1.00154 498.396 199.434)"/></g><g><path d="M274.028 187.746C274.028 188.097 273.994 188.447 273.925 188.792 273.856 189.138 273.752 189.474 273.619 189.799 273.481 190.13 273.318 190.436 273.12 190.732 272.923 191.023 272.701 191.295 272.454 191.546 272.202 191.793 271.931 192.02 271.64 192.213 271.344 192.41 271.033 192.578 270.707 192.711 270.381 192.844 270.045 192.948 269.7 193.017 269.354 193.086 269.004 193.121 268.649 193.121 268.298 193.121 267.948 193.086 267.602 193.017 267.257 192.948 266.916 192.844 266.591 192.711 266.265 192.578 265.959 192.41 265.663 192.213 265.372 192.02 265.1 191.793 264.848 191.546 264.597 191.295 264.375 191.023 264.182 190.732 263.985 190.436 263.817 190.13 263.684 189.799 263.545 189.474 263.447 189.138 263.378 188.792 263.309 188.447 263.274 188.097 263.274 187.746 263.274 187.391 263.309 187.04 263.378 186.695 263.447 186.349 263.545 186.014 263.684 185.688 263.817 185.362 263.985 185.051 264.182 184.755 264.375 184.464 264.597 184.193 264.848 183.941 265.1 183.694 265.372 183.467 265.663 183.275 265.959 183.077 266.265 182.909 266.591 182.776 266.921 182.643 267.257 182.539 267.602 182.47 267.948 182.401 268.298 182.366 268.649 182.366 269.004 182.366 269.354 182.401 269.7 182.47 270.045 182.539 270.381 182.643 270.707 182.776 271.033 182.909 271.344 183.077 271.64 183.275 271.931 183.467 272.202 183.694 272.454 183.941 272.701 184.193 272.923 184.464 273.12 184.755 273.318 185.051 273.481 185.362 273.619 185.688 273.752 186.014 273.856 186.349 273.925 186.695 273.994 187.04 274.028 187.391 274.028 187.746Z" fill="#9A73DC" transform="matrix(1 0 0 1.00154 498.396 199.434)"/></g><g clip-path="url(#clip6)"><path d="M251.922 236.267C251.922 236.622 251.888 236.973 251.819 237.318 251.75 237.664 251.646 237.999 251.513 238.325 251.374 238.651 251.212 238.962 251.014 239.258 250.817 239.549 250.595 239.821 250.343 240.072 250.096 240.319 249.825 240.546 249.529 240.739 249.237 240.936 248.926 241.104 248.601 241.237 248.275 241.37 247.939 241.474 247.594 241.543 247.248 241.612 246.898 241.647 246.543 241.647 246.192 241.647 245.842 241.612 245.496 241.543 245.146 241.474 244.81 241.37 244.485 241.237 244.159 241.104 243.848 240.936 243.557 240.739 243.261 240.546 242.989 240.319 242.742 240.072 242.491 239.821 242.269 239.549 242.071 239.258 241.879 238.962 241.711 238.651 241.578 238.325 241.439 237.999 241.341 237.664 241.272 237.318 241.202 236.973 241.168 236.622 241.168 236.267 241.168 235.917 241.202 235.566 241.272 235.221 241.341 234.875 241.439 234.54 241.578 234.214 241.711 233.883 241.879 233.577 242.071 233.281 242.269 232.99 242.491 232.718 242.742 232.467 242.989 232.22 243.261 231.993 243.557 231.8 243.848 231.603 244.159 231.435 244.485 231.302 244.81 231.169 245.146 231.065 245.496 230.996 245.842 230.927 246.192 230.892 246.543 230.892 246.898 230.892 247.248 230.927 247.594 230.996 247.939 231.065 248.275 231.169 248.601 231.302 248.926 231.435 249.237 231.603 249.529 231.8 249.825 231.993 250.096 232.22 250.343 232.467 250.595 232.718 250.817 232.99 251.014 233.281 251.212 233.577 251.374 233.883 251.513 234.214 251.646 234.54 251.75 234.875 251.819 235.221 251.888 235.566 251.922 235.917 251.922 236.267Z" fill="#9A73DC" transform="matrix(1 0 0 1.00154 498.396 199.434)"/></g></g></g></g></g></svg>