<svg xmlns="http://www.w3.org/2000/svg" xmlns:xlink="http://www.w3.org/1999/xlink" width="1366" zoomAndPan="magnify" viewBox="0 0 1024.5 576" height="768" preserveAspectRatio="xMidYMid meet" version="1.0"><defs><filter x="0%" y="0%" width="100%" height="100%" id="8f7f533f8e"><feColorMatrix values="0 0 0 0 1 0 0 0 0 1 0 0 0 0 1 0 0 0 1 0" color-interpolation-filters="sRGB"/></filter><clipPath id="5dee93e12f"><path d="M 0 0.140625 L 1024 0.140625 L 1024 575.859375 L 0 575.859375 Z M 0 0.140625 " clip-rule="nonzero"/></clipPath><clipPath id="112bc39b39"><path d="M 0 0.140625 L 305 0.140625 L 305 575.859375 L 0 575.859375 Z M 0 0.140625 " clip-rule="nonzero"/></clipPath><mask id="2e28c590b2"><g filter="url(#8f7f533f8e)"><rect x="-102.45" width="1229.4" fill="#000000" y="-57.6" height="691.2" fill-opacity="0.57"/></g></mask><clipPath id="73f6a4dd6a"><path d="M 0 0.140625 L 225 0.140625 L 225 575.859375 L 0 575.859375 Z M 0 0.140625 " clip-rule="nonzero"/></clipPath><clipPath id="44e860c0d1"><path d="M -582.777344 -127.851562 L 46.734375 -329.363281 L 304.132812 474.742188 L -325.378906 676.25 Z M -582.777344 -127.851562 " clip-rule="nonzero"/></clipPath><clipPath id="3ff85d67cf"><path d="M 210.453125 182.089844 C 263.664062 348.320312 162.738281 518.375 -11.09375 574.019531 C -184.929688 629.667969 -365.847656 549.832031 -419.058594 383.601562 C -487.683594 169.214844 -268.019531 -228.605469 -268.019531 -228.605469 C -268.019531 -228.605469 141.828125 -32.296875 210.453125 182.089844 Z M 210.453125 182.089844 " clip-rule="nonzero"/></clipPath><clipPath id="7bdf543063"><path d="M 0 0.140625 L 225 0.140625 L 225 575.859375 L 0 575.859375 Z M 0 0.140625 " clip-rule="nonzero"/></clipPath><clipPath id="b6032cd015"><path d="M -582.777344 -127.851562 L 46.734375 -329.363281 L 304.132812 474.742188 L -325.378906 676.25 Z M -582.777344 -127.851562 " clip-rule="nonzero"/></clipPath><clipPath id="869857970c"><path d="M 210.453125 182.089844 C 263.664062 348.320312 162.738281 518.375 -11.09375 574.019531 C -184.929688 629.667969 -365.847656 549.832031 -419.058594 383.601562 C -487.683594 169.214844 -268.019531 -228.605469 -268.019531 -228.605469 C -268.019531 -228.605469 141.828125 -32.296875 210.453125 182.089844 Z M 210.453125 182.089844 " clip-rule="nonzero"/></clipPath><clipPath id="4f2b83e503"><rect x="0" width="225" y="0" height="576"/></clipPath><clipPath id="99195ecc57"><rect x="0" width="305" y="0" height="576"/></clipPath><clipPath id="c714799f4e"><path d="M 0 115 L 502 115 L 502 575.859375 L 0 575.859375 Z M 0 115 " clip-rule="nonzero"/></clipPath><mask id="09fb1b133a"><g filter="url(#8f7f533f8e)"><rect x="-102.45" width="1229.4" fill="#000000" y="-57.6" height="691.2" fill-opacity="0.57"/></g></mask><clipPath id="6304ae753d"><path d="M 0 101 L 422 101 L 422 460.859375 L 0 460.859375 Z M 0 101 " clip-rule="nonzero"/></clipPath><clipPath id="b0adbcddad"><path d="M -385.648438 202.386719 L 243.863281 0.875 L 501.265625 804.976562 L -128.246094 1006.488281 Z M -385.648438 202.386719 " clip-rule="nonzero"/></clipPath><clipPath id="8f0e8b3c3d"><path d="M 407.585938 512.328125 C 460.796875 678.558594 359.871094 848.613281 186.035156 904.257812 C 12.199219 959.902344 -168.714844 880.066406 -221.925781 713.839844 C -290.554688 499.453125 -70.890625 101.632812 -70.890625 101.632812 C -70.890625 101.632812 338.957031 297.941406 407.585938 512.328125 Z M 407.585938 512.328125 " clip-rule="nonzero"/></clipPath><clipPath id="6041a5e118"><path d="M 0 0.515625 L 422 0.515625 L 422 359.859375 L 0 359.859375 Z M 0 0.515625 " clip-rule="nonzero"/></clipPath><clipPath id="61c50d883a"><path d="M -385.648438 101.386719 L 243.863281 -100.125 L 501.265625 703.976562 L -128.246094 905.488281 Z M -385.648438 101.386719 " clip-rule="nonzero"/></clipPath><clipPath id="36d3f3a203"><path d="M 407.585938 411.328125 C 460.796875 577.558594 359.871094 747.613281 186.035156 803.257812 C 12.199219 858.902344 -168.714844 779.066406 -221.925781 612.839844 C -290.554688 398.453125 -70.890625 0.632812 -70.890625 0.632812 C -70.890625 0.632812 338.957031 196.941406 407.585938 411.328125 Z M 407.585938 411.328125 " clip-rule="nonzero"/></clipPath><clipPath id="a1e8e71ff4"><rect x="0" width="422" y="0" height="360"/></clipPath><clipPath id="9dba2ac299"><rect x="0" width="502" y="0" height="461"/></clipPath></defs><g clip-path="url(#5dee93e12f)"><path fill="#ffffff" d="M 0 0.140625 L 1024 0.140625 L 1024 575.859375 L 0 575.859375 Z M 0 0.140625 " fill-opacity="1" fill-rule="nonzero"/><path fill="#f3eef4" d="M 0 0.140625 L 1024 0.140625 L 1024 575.859375 L 0 575.859375 Z M 0 0.140625 " fill-opacity="1" fill-rule="nonzero"/></g><g clip-path="url(#112bc39b39)"><g mask="url(#2e28c590b2)"><g transform="matrix(1, 0, 0, 1, 0, -0.000000000000058398)"><g clip-path="url(#99195ecc57)"><g clip-path="url(#73f6a4dd6a)"><g clip-path="url(#44e860c0d1)"><g clip-path="url(#3ff85d67cf)"><g transform="matrix(1, 0, 0, 1, 0, -0.000000000000058398)"><g clip-path="url(#4f2b83e503)"><g clip-path="url(#7bdf543063)"><g clip-path="url(#b6032cd015)"><g clip-path="url(#869857970c)"><path fill="#f1d0fb" d="M -582.777344 -127.851562 L 46.734375 -329.363281 L 303.347656 472.28125 L -326.164062 673.792969 Z M -582.777344 -127.851562 " fill-opacity="1" fill-rule="nonzero"/></g></g></g></g></g></g></g></g></g></g></g></g><g clip-path="url(#c714799f4e)"><g mask="url(#09fb1b133a)"><g transform="matrix(1, 0, 0, 1, 0, 115)"><g clip-path="url(#9dba2ac299)"><g clip-path="url(#6304ae753d)"><g clip-path="url(#b0adbcddad)"><g clip-path="url(#8f0e8b3c3d)"><g transform="matrix(1, 0, 0, 1, 0, 101)"><g clip-path="url(#a1e8e71ff4)"><g clip-path="url(#6041a5e118)"><g clip-path="url(#61c50d883a)"><g clip-path="url(#36d3f3a203)"><path fill="#f1d0fb" d="M -385.648438 101.386719 L 243.863281 -100.125 L 500.476562 701.519531 L -129.035156 903.03125 Z M -385.648438 101.386719 " fill-opacity="1" fill-rule="nonzero"/></g></g></g></g></g></g></g></g></g></g></g></g></svg>